<svg width="44" height="43" viewBox="0 0 44 43" fill="none" xmlns="http://www.w3.org/2000/svg">
<path d="M22.7333 20.0667C22.9387 20.0667 21.758 20.468 40.8613 13.5307C41.0445 13.4646 41.1932 13.3299 41.2744 13.1564C41.3557 12.9828 41.3627 12.7848 41.294 12.6062C38.3909 5.04142 31.0005 0.0219133 22.7333 0C22.3283 0 22 0.320863 22 0.716667V19.35C22 19.7458 22.3283 20.0667 22.7333 20.0667ZM23.4667 1.43333C30.5861 1.7345 36.8893 6.02157 39.6513 12.4413L23.4667 18.318V1.43333Z" fill="#F37800"/>
<path fill-rule="evenodd" clip-rule="evenodd" d="M22.7335 1.2219e-05C31.0007 0.0219255 38.3911 5.04144 41.2942 12.6062C41.3629 12.7848 41.3558 12.9828 41.2746 13.1564C41.1934 13.3299 41.0447 13.4646 40.8615 13.5307C22.9947 20.019 22.871 20.0879 22.7619 20.0696C22.7543 20.0684 22.7468 20.0667 22.7335 20.0667C22.3285 20.0667 22.0002 19.7458 22.0002 19.35V0.716679C22.0002 0.320875 22.3285 1.2219e-05 22.7335 1.2219e-05ZM40.9636 13.8128C35.7451 15.7079 32.0401 17.0554 29.407 18.0131C27.221 18.8081 25.7739 19.3344 24.8129 19.6823C23.7559 20.0649 23.2817 20.2335 23.0594 20.3062C22.9577 20.3394 22.8812 20.3623 22.819 20.3688C22.7769 20.3732 22.7438 20.3703 22.7191 20.3666C22.1614 20.359 21.7002 19.9131 21.7002 19.35V0.716679C21.7002 0.148725 22.1694 -0.299988 22.7335 -0.299988C31.1212 -0.277755 38.6256 4.81515 41.5743 12.4987C41.5743 12.4988 41.5743 12.4986 41.5743 12.4987M40.9636 13.8128C41.2203 13.7202 41.4308 13.5305 41.5463 13.2835C41.6621 13.0363 41.6722 12.7535 41.5743 12.4987M23.4669 1.43335V18.318L39.6515 12.4413C39.6119 12.3492 39.5715 12.2575 39.5304 12.1662C36.7486 5.98876 30.6611 1.84964 23.7669 1.44842C23.667 1.44261 23.567 1.43758 23.4669 1.43335ZM23.7669 1.74893V17.8899L39.2476 12.2689C36.5108 6.21228 30.5374 2.14931 23.7669 1.74893Z" fill="#F37800"/>
<path d="M39.5996 23.6501C39.6073 21.341 39.19 19.0494 38.3676 16.8848C38.296 16.7043 38.1527 16.5599 37.9703 16.4843C37.788 16.4087 37.5822 16.4084 37.3996 16.4834L20.5329 22.6181V5.01672C20.5329 4.62092 20.2046 4.30005 19.7996 4.30005C11.7818 4.29543 4.55254 9.01675 1.48961 16.2581C-1.57333 23.4994 0.134728 31.8312 5.81572 37.3605C11.4967 42.8898 20.0291 44.5251 27.4263 41.5023C32.4486 44.3235 38.8492 42.8546 42.0616 38.1436C45.274 33.4325 44.1973 27.0941 39.5996 23.6501ZM19.0663 5.73339V22.7471L2.14824 18.8556C4.24599 11.3376 11.098 6.02288 19.0663 5.73339ZM1.80358 20.2531L18.8463 24.1661L13.1996 40.3342C4.93415 37.2117 0.137063 28.7587 1.80358 20.2531ZM14.5563 40.8L20.3789 24.2019L37.2456 18.0816C37.7545 19.5858 38.053 21.1504 38.1329 22.7328C33.1469 20.157 26.9752 21.6839 23.8438 26.2679C20.7123 30.8518 21.6357 37.0077 25.9816 40.5205C22.3028 41.8111 18.2965 41.9091 14.5563 40.8ZM32.9996 41.5668C27.7345 41.5668 23.4663 37.3956 23.4663 32.2501C23.4663 27.1047 27.7345 22.9334 32.9996 22.9334C38.2647 22.9334 42.5329 27.1047 42.5329 32.2501C42.5329 34.7211 41.5285 37.0908 39.7407 38.838C37.9528 40.5852 35.528 41.5668 32.9996 41.5668Z" fill="#216079"/>
<path fill-rule="evenodd" clip-rule="evenodd" d="M38.6483 16.7782C39.4659 18.9303 39.8894 21.206 39.8997 23.5012C44.5229 27.06 45.5855 33.5086 42.3097 38.3126C39.0352 43.1147 32.5427 44.6352 27.4064 41.8341C19.9309 44.8277 11.3399 43.1556 5.6067 37.5755C-0.161905 31.9609 -1.89809 23.4977 1.21353 16.1412C4.32463 8.78603 11.6646 3.99544 19.7998 4.00006M27.4265 41.5023C32.4489 44.3235 38.8494 42.8546 42.0618 38.1436C45.2743 33.4326 44.1975 27.0941 39.5998 23.6501C39.6075 21.3411 39.1902 19.0495 38.3678 16.8848C38.2962 16.7043 38.1529 16.5599 37.9706 16.4843C37.7882 16.4087 37.5824 16.4084 37.3998 16.4834L20.5332 22.6181V5.01673C20.5332 4.62093 20.2048 4.30006 19.7998 4.30006C11.782 4.29544 4.55276 9.01676 1.48983 16.2581C-1.5731 23.4994 0.134954 31.8312 5.81594 37.3605C11.4969 42.8898 20.0293 44.5251 27.4265 41.5023ZM19.7998 4.00006C20.3639 4.00016 20.8332 4.44884 20.8332 5.01673V22.1898L37.292 16.2034C37.5463 16.1008 37.8319 16.102 38.0855 16.2072C38.3413 16.3132 38.5445 16.5169 38.6467 16.7741L38.6483 16.7782M14.8453 40.8831C14.7488 40.8562 14.6526 40.8285 14.5565 40.8L20.3792 24.202L37.2458 18.0816C37.2779 18.1764 37.3091 18.2715 37.3395 18.3667C37.7562 19.6725 38.0154 21.0213 38.1121 22.3858C38.1203 22.5013 38.1273 22.617 38.1332 22.7328C38.0307 22.6798 37.9276 22.6286 37.8242 22.5791C32.8946 20.2211 26.9111 21.7781 23.844 26.2679C20.7782 30.7557 21.5989 36.7501 25.7129 40.296C25.801 40.372 25.8907 40.4468 25.9818 40.5205C25.8707 40.5595 25.7593 40.5974 25.6477 40.6342C22.1563 41.7846 18.389 41.8717 14.8453 40.8831ZM14.9448 40.5994C18.3677 41.5503 22.0018 41.4816 25.3819 40.4049C21.2713 36.7468 20.4771 30.6647 23.5963 26.0987C26.7166 21.531 32.7693 19.9204 37.7999 22.2363C37.6963 20.9578 37.4473 19.6943 37.0573 18.4692L20.6152 24.4355L14.9448 40.5994ZM19.0665 5.7334C18.9663 5.73704 18.8663 5.74148 18.7665 5.7467C11.0287 6.15154 4.39458 11.2956 2.23168 18.5669C2.20316 18.6628 2.17542 18.759 2.14847 18.8556L19.0665 22.7471V5.7334ZM18.7665 6.04711C11.165 6.45128 4.65454 11.5026 2.52464 18.6343L18.7665 22.3703V6.04711ZM1.8038 20.2531C1.78453 20.3515 1.76612 20.4499 1.74856 20.5482C0.265942 28.8571 4.92107 37.0574 12.9199 40.2259C13.0127 40.2626 13.1061 40.2987 13.1998 40.3342L18.8465 24.1661L1.8038 20.2531ZM2.04132 20.6154C0.593224 28.7711 5.16063 36.8236 13.0189 39.9424L18.4528 24.3835L2.04132 20.6154ZM23.7665 32.2501C23.7665 37.2235 27.8939 41.2668 32.9998 41.2668C35.4509 41.2668 37.8002 40.3152 39.5312 38.6235C41.2621 36.932 42.2332 34.6393 42.2332 32.2501C42.2332 27.2768 38.1058 23.2334 32.9998 23.2334C27.8939 23.2334 23.7665 27.2768 23.7665 32.2501ZM23.4665 32.2501C23.4665 37.3956 27.7347 41.5668 32.9998 41.5668C35.5282 41.5668 37.9531 40.5853 39.7409 38.838C41.5288 37.0908 42.5332 34.7211 42.5332 32.2501C42.5332 27.1047 38.2649 22.9335 32.9998 22.9335C27.7347 22.9335 23.4665 27.1047 23.4665 32.2501Z" fill="#216079"/>
<path d="M37.9206 27.4413C37.7829 27.3056 37.5954 27.2293 37.3999 27.2293C37.2044 27.2293 37.0169 27.3056 36.8792 27.4413L28.0793 36.0413C27.8677 36.2463 27.8041 36.5561 27.9184 36.825C28.0326 37.0939 28.302 37.2685 28.5999 37.2668C28.7948 37.2679 28.9822 37.1931 29.1206 37.059L37.9206 28.459C38.0594 28.3244 38.1375 28.1412 38.1375 27.9501C38.1375 27.759 38.0594 27.5759 37.9206 27.4413Z" fill="#F37800"/>
<path fill-rule="evenodd" clip-rule="evenodd" d="M29.1208 37.059C28.9824 37.1931 28.7951 37.2679 28.6001 37.2668C28.3022 37.2685 28.0329 37.0939 27.9186 36.825C27.8044 36.5561 27.8679 36.2463 28.0795 36.0413L36.8795 27.4413C37.0172 27.3056 37.2046 27.2293 37.4001 27.2293C37.5957 27.2293 37.7831 27.3056 37.9208 27.4413C38.0596 27.5759 38.1377 27.7591 38.1377 27.9501C38.1377 28.1412 38.0596 28.3244 37.9208 28.459L29.1208 37.059ZM38.1296 28.6744C38.1294 28.6745 38.1298 28.6742 38.1296 28.6744L29.3296 37.2744C29.1345 37.4635 28.8719 37.5679 28.6 37.5668C28.185 37.5685 27.805 37.3248 27.6425 36.9423C27.4793 36.5581 27.571 36.1167 27.8703 35.8263C27.8704 35.8262 27.8701 35.8264 27.8703 35.8263L36.6689 27.2276C36.6691 27.2274 36.6687 27.2278 36.6689 27.2276C36.8634 27.0363 37.1271 26.9293 37.4001 26.9293C37.6731 26.9293 37.9361 27.0356 38.1305 27.2268C38.3263 27.417 38.4377 27.6772 38.4377 27.9501C38.4377 28.2233 38.3256 28.4841 38.1296 28.6744Z" fill="#F37800"/>
<path d="M31.5328 28.6667C31.5328 27.4793 30.5478 26.5167 29.3328 26.5167C28.1178 26.5167 27.1328 27.4793 27.1328 28.6667C27.1328 29.8541 28.1178 30.8167 29.3328 30.8167C30.5478 30.8167 31.5328 29.8541 31.5328 28.6667ZM28.5995 28.6667C28.5995 28.2709 28.9278 27.95 29.3328 27.95C29.7378 27.95 30.0661 28.2709 30.0661 28.6667C30.0661 29.0625 29.7378 29.3834 29.3328 29.3834C28.9278 29.3834 28.5995 29.0625 28.5995 28.6667Z" fill="#F37800"/>
<path fill-rule="evenodd" clip-rule="evenodd" d="M29.333 26.2167C30.7072 26.2167 31.833 27.3072 31.833 28.6667C31.833 30.0263 30.7072 31.1167 29.333 31.1167C27.9588 31.1167 26.833 30.0263 26.833 28.6667C26.833 27.3072 27.9588 26.2167 29.333 26.2167ZM29.333 28.2501C29.0871 28.2501 28.8997 28.4431 28.8997 28.6667C28.8997 28.8904 29.0871 29.0834 29.333 29.0834C29.5789 29.0834 29.7663 28.8904 29.7663 28.6667C29.7663 28.4431 29.5789 28.2501 29.333 28.2501ZM29.333 26.5167C30.548 26.5167 31.533 27.4793 31.533 28.6667C31.533 29.8541 30.548 30.8167 29.333 30.8167C28.118 30.8167 27.133 29.8541 27.133 28.6667C27.133 27.4793 28.118 26.5167 29.333 26.5167ZM29.333 27.9501C28.928 27.9501 28.5997 28.2709 28.5997 28.6667C28.5997 29.0625 28.928 29.3834 29.333 29.3834C29.738 29.3834 30.0663 29.0625 30.0663 28.6667C30.0663 28.2709 29.738 27.9501 29.333 27.9501Z" fill="#F37800"/>
<path d="M36.6668 33.6834C35.4518 33.6834 34.4668 34.646 34.4668 35.8334C34.4668 37.0208 35.4518 37.9834 36.6668 37.9834C37.8818 37.9834 38.8668 37.0208 38.8668 35.8334C38.8668 34.646 37.8818 33.6834 36.6668 33.6834ZM36.6668 36.5501C36.2618 36.5501 35.9335 36.2292 35.9335 35.8334C35.9335 35.4376 36.2618 35.1167 36.6668 35.1167C37.0718 35.1167 37.4001 35.4376 37.4001 35.8334C37.4001 36.2292 37.0718 36.5501 36.6668 36.5501Z" fill="#F37800"/>
<path fill-rule="evenodd" clip-rule="evenodd" d="M34.166 35.8334C34.166 34.4739 35.2918 33.3834 36.666 33.3834C38.0402 33.3834 39.166 34.4739 39.166 35.8334C39.166 37.193 38.0402 38.2834 36.666 38.2834C35.2918 38.2834 34.166 37.193 34.166 35.8334ZM36.2327 35.8334C36.2327 36.0571 36.4201 36.2501 36.666 36.2501C36.9119 36.2501 37.0993 36.0571 37.0993 35.8334C37.0993 35.6098 36.9119 35.4167 36.666 35.4167C36.4201 35.4167 36.2327 35.6098 36.2327 35.8334ZM34.466 35.8334C34.466 34.646 35.451 33.6834 36.666 33.6834C37.881 33.6834 38.866 34.646 38.866 35.8334C38.866 37.0208 37.881 37.9834 36.666 37.9834C35.451 37.9834 34.466 37.0208 34.466 35.8334ZM35.9327 35.8334C35.9327 36.2292 36.261 36.5501 36.666 36.5501C37.071 36.5501 37.3993 36.2292 37.3993 35.8334C37.3993 35.4376 37.071 35.1167 36.666 35.1167C36.261 35.1167 35.9327 35.4376 35.9327 35.8334Z" fill="#F37800"/>
</svg>
