<svg width="10" height="10" viewBox="0 0 10 10" fill="none" xmlns="http://www.w3.org/2000/svg">
<path d="M5.58629 5.00297L9.87288 0.716378C10.0383 0.556595 10.0429 0.292958 9.88313 0.127514C9.72334 -0.03793 9.45971 -0.0425175 9.29426 0.117265C9.2908 0.120608 9.28738 0.124025 9.28401 0.127514L4.9974 4.4141L0.710806 0.12749C0.545362 -0.0322931 0.281725 -0.0277056 0.121942 0.137739C-0.0339368 0.299132 -0.0339368 0.554985 0.121942 0.716378L4.40853 5.00297L0.121942 9.28956C-0.0406473 9.45217 -0.0406473 9.71581 0.121942 9.87842C0.284556 10.041 0.548193 10.041 0.710806 9.87842L4.9974 5.59183L9.28399 9.87842C9.44943 10.0382 9.71307 10.0336 9.87285 9.86817C10.0287 9.70678 10.0287 9.45093 9.87285 9.28956L5.58629 5.00297Z" fill="#216079"/>
</svg>
