<svg width="117" height="87" viewBox="0 0 117 87" fill="none" xmlns="http://www.w3.org/2000/svg">
<path d="M0 26.1L58.5 87L117 26.1L89.3102 0H27.69L0 26.1Z" fill="#F37800"/>
<path fill-rule="evenodd" clip-rule="evenodd" d="M106.781 30.4688L110 27.1005L106.953 24.2125L106.265 24.9384L108.583 27.1352L106.058 29.7779L106.781 30.4688ZM100.859 18.4375L100.171 19.1634L94.0768 13.3884L94.7647 12.6625L100.859 18.4375ZM35.8972 4V5H31.7752L29.0174 7.61336L28.3296 6.8875L31.3767 4H35.8972ZM22.2354 12.6625L22.9233 13.3884L16.8291 19.1634L16.1412 18.4375L22.2354 12.6625ZM10.0471 24.2125L10.7349 24.9384L8.4167 27.1352L10.9418 29.7779L10.2187 30.4688L7 27.1L10.0471 24.2125ZM16.6562 37.2062L23.0938 43.9438L23.8168 43.2529L17.3793 36.5154L16.6562 37.2062ZM29.5312 50.6813L30.2543 49.9904L36.6918 56.7279L35.9687 57.4188L29.5312 50.6813ZM42.4062 64.1562L43.1293 63.4654L49.5668 70.2029L48.8438 70.8938L42.4062 64.1562ZM55.2812 77.6312L56.0043 76.9404L58.5 79.5525L60.9957 76.9404L61.7188 77.6312L58.5 81L55.2812 77.6312ZM68.1562 70.8938L67.4332 70.2029L73.8707 63.4654L74.5938 64.1562L68.1562 70.8938ZM81.0312 57.4188L87.4688 50.6813L86.7457 49.9904L80.3082 56.7279L81.0312 57.4188ZM93.9062 43.9438L100.344 37.2062L99.6207 36.5154L93.1832 43.2529L93.9062 43.9438ZM44.9384 4V5H53.9795V4H44.9384ZM63.0206 4V5H72.0618V4H63.0206ZM81.1029 4V5H85.2249L87.9827 7.61336L88.6705 6.8875L85.6235 4H81.1029Z" fill="white"/>
</svg>
