<svg width="90" height="20" viewBox="0 0 90 20" fill="none" xmlns="http://www.w3.org/2000/svg">
<path fill-rule="evenodd" clip-rule="evenodd" d="M0.5 1C0.5 0.723858 0.723858 0.5 1 0.5C1.74235 0.5 2.35004 0.88574 2.83805 1.44454C3.32105 1.9976 3.72423 2.75959 4.07644 3.62379C4.77812 5.34549 5.33527 7.62394 5.88022 9.85253L5.88724 9.88123C6.44044 12.1435 6.98191 14.3529 7.6527 15.9988C7.98823 16.8221 8.34157 17.4663 8.71825 17.8977C9.08991 18.3232 9.44506 18.5 9.8031 18.5C10.1611 18.5 10.5163 18.3232 10.8879 17.8977C11.2646 17.4663 11.618 16.8221 11.9535 15.9988C12.6243 14.3529 13.1658 12.1435 13.719 9.88123L13.726 9.85252C14.2709 7.62393 14.8281 5.34549 15.5298 3.62379C15.882 2.75959 16.2851 1.9976 16.7681 1.44454C17.2562 0.88574 17.8638 0.5 18.6062 0.5C19.3485 0.5 19.9562 0.88574 20.4442 1.44455C20.9272 1.99761 21.3304 2.75961 21.6825 3.62383C22.3848 5.34753 22.9421 7.62922 23.487 9.8603L23.4922 9.88137C24.0447 12.1437 24.5853 14.3531 25.2547 15.9991C25.5895 16.8225 25.9421 17.4668 26.3179 17.8981C26.6888 18.3237 27.0427 18.5 27.399 18.5C27.757 18.5 28.1122 18.3232 28.4839 17.8977C28.8605 17.4664 29.2138 16.8221 29.5493 15.9988C30.2199 14.353 30.7611 12.1436 31.3136 9.88137L31.3225 9.84494C31.8662 7.61885 32.4219 5.34375 33.1212 3.62414C33.4726 2.76 33.8749 1.99804 34.3568 1.44498C34.8436 0.886227 35.4502 0.5 36.1918 0.5C36.9341 0.5 37.5418 0.885735 38.0298 1.44455C38.5128 1.99761 38.916 2.75961 39.2681 3.62383C39.9705 5.34759 40.5278 7.62937 41.0727 9.86052L41.0778 9.88137C41.6304 12.1437 42.1709 14.3531 42.8403 15.9991C43.1751 16.8225 43.5277 17.4668 43.9035 17.8981C44.2743 18.3237 44.6283 18.5 44.9845 18.5C45.3426 18.5 45.6977 18.3232 46.0694 17.8977C46.4461 17.4663 46.7994 16.8221 47.135 15.9988C47.8058 14.3529 48.3472 12.1435 48.9004 9.88124L48.9075 9.85235C49.4524 7.62382 50.0095 5.34545 50.7112 3.6238C51.0634 2.75959 51.4665 1.99761 51.9495 1.44455C52.4375 0.885751 53.0451 0.5 53.7875 0.5C54.5298 0.5 55.1375 0.885735 55.6256 1.44454C56.1086 1.99759 56.5118 2.75958 56.864 3.62379C57.5657 5.34551 58.1228 7.62399 58.6678 9.8526L58.6748 9.88123C59.228 12.1435 59.7695 14.3529 60.4403 15.9988C60.7759 16.8221 61.1292 17.4663 61.5059 17.8977C61.8776 18.3232 62.2327 18.5 62.5908 18.5C62.9488 18.5 63.3039 18.3233 63.6755 17.8977C64.0522 17.4664 64.4055 16.8221 64.741 15.9988C65.4118 14.3529 65.9533 12.1435 66.5064 9.88124L66.5134 9.85263C67.0584 7.624 67.6155 5.34552 68.3172 3.62379C68.6695 2.75958 69.0726 1.99759 69.5557 1.44454C70.0437 0.885735 70.6514 0.5 71.3937 0.5C72.1361 0.5 72.7438 0.885735 73.2318 1.44454C73.7148 1.99759 74.118 2.75958 74.4702 3.62379C75.1719 5.34551 75.7291 7.62399 76.2741 9.8526L76.2811 9.88123C76.8343 12.1435 77.3758 14.3529 78.0466 15.9988C78.3821 16.8221 78.7355 17.4663 79.1121 17.8977C79.4838 18.3232 79.839 18.5 80.197 18.5C80.555 18.5 80.9102 18.3233 81.2818 17.8977C81.6585 17.4664 82.0118 16.8221 82.3473 15.9988C83.0181 14.3529 83.5595 12.1435 84.1127 9.88124L84.1197 9.85263C84.6647 7.624 85.2218 5.34552 85.9235 3.62379C86.2757 2.75958 86.6789 1.99759 87.1619 1.44454C87.6499 0.885735 88.2576 0.5 89 0.5C89.2761 0.5 89.5 0.723858 89.5 1C89.5 1.27614 89.2761 1.5 89 1.5C88.642 1.5 88.2868 1.67676 87.9151 2.10234C87.5384 2.53366 87.1851 3.17792 86.8495 4.00121C86.1787 5.64712 85.6373 7.85649 85.0841 10.1188L85.077 10.1476C84.5321 12.3761 83.975 14.6545 83.2733 16.3762C82.9212 17.2404 82.518 18.0024 82.035 18.5554C81.547 19.1143 80.9394 19.5 80.197 19.5C79.4547 19.5 78.847 19.1143 78.3589 18.5555C77.8759 18.0024 77.4727 17.2404 77.1205 16.3762C76.4188 14.6545 75.8617 12.376 75.3167 10.1474L75.3097 10.1188C74.7565 7.85649 74.215 5.64712 73.5442 4.00121C73.2087 3.17792 72.8553 2.53366 72.4786 2.10234C72.107 1.67676 71.7518 1.5 71.3937 1.5C71.0357 1.5 70.6805 1.67676 70.3089 2.10234C69.9322 2.53366 69.5788 3.17792 69.2433 4.00121C68.5725 5.64712 68.031 7.85649 67.4778 10.1188L67.4708 10.1476C66.9258 12.3761 66.3687 14.6545 65.6671 16.3762C65.3149 17.2404 64.9117 18.0024 64.4288 18.5554C63.9408 19.1143 63.3331 19.5 62.5908 19.5C61.8484 19.5 61.2407 19.1143 60.7527 18.5555C60.2697 18.0024 59.8665 17.2404 59.5143 16.3762C58.8126 14.6545 58.2554 12.3761 57.7105 10.1475L57.7034 10.1188C57.1502 7.85649 56.6087 5.64712 55.9379 4.00121C55.6024 3.17792 55.2491 2.53366 54.8724 2.10234C54.5007 1.67676 54.1455 1.5 53.7875 1.5C53.4295 1.5 53.0744 1.67675 52.7027 2.10232C52.326 2.53364 51.9727 3.17791 51.6372 4.0012C50.9665 5.64711 50.425 7.85648 49.8718 10.1188L49.8649 10.1471C49.3199 12.3758 48.7627 14.6544 48.061 16.3762C47.7088 17.2404 47.3056 18.0024 46.8226 18.5555C46.3346 19.1143 45.7269 19.5 44.9845 19.5C44.243 19.5 43.6364 19.1138 43.1495 18.555C42.6676 18.002 42.2654 17.24 41.914 16.3759C41.2146 14.6563 40.659 12.3812 40.1153 10.1551L40.1064 10.1186C39.5538 7.85641 39.0127 5.64704 38.342 4.00117C38.0066 3.17789 37.6533 2.53364 37.2766 2.10233C36.905 1.67676 36.5498 1.5 36.1918 1.5C35.8355 1.5 35.4816 1.67627 35.1107 2.1019C34.7349 2.53321 34.3824 3.1775 34.0475 4.00086C33.3781 5.64687 32.8376 7.85631 32.2851 10.1186L32.2799 10.1396C31.735 12.3707 31.1777 14.6524 30.4753 16.3762C30.1232 17.2404 29.7201 18.0024 29.2371 18.5555C28.749 19.1143 28.1413 19.5 27.399 19.5C26.6574 19.5 26.0508 19.1138 25.564 18.555C25.0821 18.002 24.6798 17.24 24.3284 16.3759C23.629 14.6562 23.0733 12.381 22.5296 10.1549L22.5207 10.1186C21.9682 7.85641 21.427 5.64704 20.7564 4.00117C20.421 3.17789 20.0677 2.53364 19.691 2.10232C19.3194 1.67676 18.9642 1.5 18.6062 1.5C18.2482 1.5 17.893 1.67676 17.5213 2.10233C17.1447 2.53365 16.7913 3.17791 16.4558 4.00121C15.785 5.64712 15.2435 7.85649 14.6903 10.1188L14.6833 10.1475C14.1384 12.3761 13.5812 14.6545 12.8795 16.3762C12.5273 17.2404 12.1241 18.0024 11.6412 18.5555C11.1531 19.1143 10.5455 19.5 9.8031 19.5C9.06075 19.5 8.45306 19.1143 7.96505 18.5555C7.48205 18.0024 7.07887 17.2404 6.72666 16.3762C6.02497 14.6545 5.46783 12.3761 4.92287 10.1475L4.91586 10.1188C4.36266 7.85649 3.82119 5.64712 3.1504 4.00121C2.81486 3.17791 2.46153 2.53365 2.08485 2.10233C1.71319 1.67676 1.35804 1.5 1 1.5C0.723858 1.5 0.5 1.27614 0.5 1Z" fill="white"/>
</svg>
