<svg width="17" height="17" viewBox="0 0 17 17" fill="none" xmlns="http://www.w3.org/2000/svg">
<g clip-path="url(#clip0_269_1502)">
<path d="M10.5025 6.4966C10.3644 6.35847 10.1398 6.35847 10.0017 6.4966C9.8636 6.63472 9.8636 6.85997 10.0017 6.9974C10.4027 7.39833 10.6244 7.9317 10.6244 8.49977C10.6244 9.67134 9.67092 10.6248 8.49935 10.6248C7.93128 10.6248 7.3979 10.4038 6.99697 10.0021C6.85885 9.86402 6.6343 9.86402 6.49617 10.0021C6.35805 10.1396 6.35805 10.3648 6.49617 10.5029C7.03024 11.0384 7.74212 11.3331 8.49935 11.3331C10.0619 11.3331 11.3327 10.0624 11.3327 8.49981C11.3327 7.74254 11.038 7.03067 10.5025 6.4966Z" fill="#414141"/>
<path d="M8.99401 5.71526C8.83321 5.68693 8.66889 5.66638 8.50032 5.66638C6.93774 5.66638 5.66699 6.93713 5.66699 8.4997C5.66699 8.66827 5.68754 8.83263 5.71656 8.99339C5.74701 9.16482 5.89649 9.28595 6.06437 9.28595C6.08492 9.28595 6.10544 9.28452 6.12669 9.28027C6.31864 9.24627 6.44756 9.06209 6.41356 8.87014C6.39162 8.74972 6.37532 8.6272 6.37532 8.4997C6.37532 7.32813 7.32874 6.3747 8.50032 6.3747C8.62782 6.3747 8.75037 6.39101 8.87076 6.41226C9.05919 6.45051 9.24689 6.31733 9.28089 6.12538C9.31489 5.93343 9.18599 5.74926 8.99401 5.71526Z" fill="#414141"/>
<path d="M16.9159 8.27096C16.8358 8.17604 14.9198 5.93984 12.277 4.57065C12.1056 4.4807 11.8896 4.5487 11.7996 4.72295C11.7097 4.8965 11.7777 5.1104 11.9519 5.20038C13.9877 6.25438 15.614 7.89912 16.17 8.4998C15.3257 9.41425 12.0029 12.7498 8.50022 12.7498C7.31165 12.7498 6.11385 12.4629 4.93872 11.8962C4.76447 11.8105 4.55128 11.8849 4.46628 12.0613C4.38058 12.237 4.45496 12.4487 4.63133 12.5337C5.90277 13.1479 7.2047 13.4581 8.50025 13.4581C12.8643 13.4581 16.753 8.92194 16.9167 8.72857C17.0285 8.59679 17.0278 8.40341 16.9159 8.27096Z" fill="#414141"/>
<path d="M10.8241 3.94938C10.018 3.67808 9.23601 3.54138 8.50003 3.54138C4.13599 3.54138 0.247245 8.07755 0.0836203 8.27093C-0.0198073 8.39275 -0.0283073 8.56985 0.063798 8.7023C0.112673 8.77242 1.28355 10.4349 3.31292 11.7828C3.37311 11.8232 3.44042 11.8423 3.50842 11.8423C3.62247 11.8423 3.73509 11.7871 3.80309 11.683C3.91147 11.5208 3.86684 11.3005 3.70392 11.1928C2.2136 10.2018 1.1936 9.00548 0.811797 8.51885C1.6271 7.63343 4.97184 4.24974 8.50003 4.24974C9.15948 4.24974 9.86571 4.37441 10.5981 4.62018C10.7837 4.68675 10.9849 4.58406 11.0465 4.39776C11.1088 4.21218 11.0097 4.01174 10.8241 3.94938Z" fill="#414141"/>
<path d="M14.771 2.22884C14.6329 2.09071 14.4083 2.09071 14.2702 2.22884L2.22859 14.2705C2.09047 14.4086 2.09047 14.6332 2.22859 14.7713C2.29802 14.84 2.38867 14.8747 2.47934 14.8747C2.57002 14.8747 2.66066 14.84 2.7294 14.7713L14.771 2.72964C14.9091 2.59151 14.9091 2.36696 14.771 2.22884Z" fill="#414141"/>
</g>
<defs>
<clipPath id="clip0_269_1502">
<rect width="17" height="17" fill="white"/>
</clipPath>
</defs>
</svg>
