<svg width="29" height="25" viewBox="0 0 29 25" fill="none" xmlns="http://www.w3.org/2000/svg">
<path d="M15.4617 17.0902H23.1926C23.4825 17.0902 23.6757 16.897 23.6757 16.6071V12.2584C23.6757 11.9685 23.4825 11.7753 23.1926 11.7753H15.4617C15.1718 11.7753 14.9785 11.9685 14.9785 12.2584V16.6071C14.9785 16.8969 15.1718 17.0902 15.4617 17.0902ZM15.9448 12.7416H22.7094V16.1238H15.9448V12.7416Z" fill="#F37800"/>
<path d="M2.41578 10.8089H6.28126C6.57117 10.8089 6.76442 10.6156 6.76442 10.3257C6.76442 10.0358 6.57117 9.84253 6.28126 9.84253H2.41578C2.12587 9.84253 1.93262 10.0358 1.93262 10.3257C1.93262 10.6156 2.12587 10.8089 2.41578 10.8089Z" fill="#F37800"/>
<path d="M8.21461 10.8089H12.0801C12.37 10.8089 12.5633 10.6156 12.5633 10.3257C12.5633 10.0358 12.37 9.84253 12.0801 9.84253H8.21461C7.9247 9.84253 7.73145 10.0358 7.73145 10.3257C7.73145 10.6156 7.9247 10.8089 8.21461 10.8089Z" fill="#F37800"/>
<path d="M2.41578 12.7416H8.69713C8.98704 12.7416 9.1803 12.5483 9.1803 12.2584C9.1803 11.9685 8.98704 11.7753 8.69713 11.7753H2.41578C2.12587 11.7753 1.93262 11.9685 1.93262 12.2584C1.93262 12.5483 2.12587 12.7416 2.41578 12.7416Z" fill="#F37800"/>
<path d="M12.0792 11.7753H10.6296C10.3397 11.7753 10.1465 11.9685 10.1465 12.2584C10.1465 12.5483 10.3397 12.7416 10.6296 12.7416H12.0792C12.3691 12.7416 12.5624 12.5483 12.5624 12.2584C12.5624 11.9685 12.3691 11.7753 12.0792 11.7753Z" fill="#F37800"/>
<path d="M28.5561 5.78382C28.2179 5.34896 27.783 5.10735 27.2515 5.05905L26.0918 4.91851V3.56115V2.59482C26.0918 1.53184 25.2221 0.662109 24.1591 0.662109H1.93271C0.869728 0.662053 0 1.53178 0 2.59482V3.5612V7.42668V18.0567C0 18.9294 0.586444 19.6714 1.3846 19.9093C1.36025 20.8867 2.0998 21.7352 3.0924 21.8255L25.4154 24.338C25.4637 24.338 25.5604 24.338 25.6087 24.338C26.5751 24.338 27.4448 23.6133 27.5414 22.6952L28.9909 7.18507C29.0392 6.70185 28.8943 6.17033 28.5561 5.78382ZM0.966384 4.04437H25.1255V5.30066V6.94346H0.966384V4.04437ZM1.93271 1.62844H24.1591C24.6906 1.62844 25.1255 2.0633 25.1255 2.59482V3.07798H0.966384V2.59482C0.966384 2.0633 1.40125 1.62844 1.93271 1.62844ZM0.966384 18.0566V7.90979H25.1255V18.0566C25.1255 18.5881 24.6907 19.023 24.1591 19.023H1.98107H1.93277C1.40125 19.023 0.966384 18.5881 0.966384 18.0566ZM28.0246 6.99176L26.575 22.5019C26.5267 23.0334 26.0435 23.4199 25.512 23.3716L3.2373 20.8591C2.75414 20.8108 2.41587 20.4242 2.36757 19.9894H24.1591C25.2221 19.9894 26.0918 19.1197 26.0918 18.0567V7.42662V5.83212L27.2031 5.92878C27.4447 5.92878 27.6863 6.07373 27.8312 6.26699C27.9763 6.46024 28.0729 6.75015 28.0246 6.99176Z" fill="#216079"/>
</svg>
