<svg width="524" height="467" viewBox="0 0 524 467" fill="none" xmlns="http://www.w3.org/2000/svg">
<g opacity="0.2">
<path d="M351.486 466.212H168.244C170.006 466.212 171.416 465.494 172.12 463.7L232.379 358.521H286.999L347.609 463.7C348.314 465.494 349.724 466.212 351.486 466.212Z" fill="#E0E0E0"/>
<path d="M347.259 158.216L232.38 358.881L172.122 464.059C171.417 465.495 169.656 466.572 168.246 466.572H0.509586C-3.01429 466.572 -5.12863 462.623 -3.3667 459.393L253.876 2.42305C255.638 -0.807684 260.219 -0.807684 261.981 2.42305L347.259 153.55C348.316 154.986 348.316 156.78 347.259 158.216Z" fill="#E0E0E0"/>
<path d="M518.874 466.212H351.49C349.728 466.212 348.319 465.494 347.614 464.058L287.003 358.88L266.565 323.701C264.803 320.47 266.917 316.522 270.441 316.522H440.997C442.759 316.522 444.168 317.598 445.225 319.034L522.751 459.392C524.513 462.264 522.398 466.212 518.874 466.212Z" fill="#E0E0E0"/>
</g>
</svg>
