<svg width="53" height="45" viewBox="0 0 53 45" fill="none" xmlns="http://www.w3.org/2000/svg">
<path d="M37.6817 37.5163C37.1205 37.5163 36.665 37.1136 36.665 36.5504V36.4487C36.665 35.8875 37.1205 35.4321 37.6817 35.4321C38.2429 35.4321 38.6984 35.8875 38.6984 36.4487C38.6984 37.0099 38.2429 37.5163 37.6817 37.5163Z" fill="#216079"/>
<path d="M37.6821 44.8669H29.5488C28.9876 44.8669 28.5321 44.4114 28.5321 43.8502V40.5827C26.0331 40.8694 22.975 40.8836 20.3988 40.5562V43.8502C20.3988 44.4114 19.9433 44.8669 19.3821 44.8669H11.2488C10.6876 44.8669 10.2321 44.4114 10.2321 43.8502V36.8962C6.7978 34.5721 5.1264 31.8556 4.50216 30.6336H1.0821C0.520896 30.6336 0.0654297 30.1781 0.0654297 29.6169V21.4836C0.0654297 20.9224 0.520896 20.4669 1.0821 20.4669H4.45743C4.90273 19.4746 5.94176 17.6019 8.05033 15.7313L6.20813 9.57637C6.11663 9.26731 6.17356 8.93384 6.36673 8.67764C6.55786 8.41941 6.86083 8.26691 7.1821 8.26691C9.92303 8.26691 14.6729 9.72481 16.0881 12.362C16.3545 12.8561 16.1694 13.4722 15.6733 13.7386C15.1751 14.007 14.5631 13.8199 14.2967 13.3238C13.5769 11.9818 10.8909 10.7984 8.5851 10.4243L10.1894 15.7841C10.3073 16.1766 10.1772 16.6036 9.85796 16.8638C6.93606 19.253 6.12883 21.7581 6.1207 21.7845C5.98853 22.2054 5.59406 22.5002 5.14876 22.5002H2.09876V28.6002H5.14876C5.5656 28.6002 5.94176 28.8585 6.0963 29.2468C6.1085 29.2814 7.52776 32.7747 11.7957 35.4892C12.0885 35.6762 12.2654 35.9995 12.2654 36.3472V42.8336H18.3654V39.3769C18.3654 39.078 18.4976 38.7913 18.7274 38.5981C18.9571 38.405 19.2621 38.3236 19.5549 38.3745C22.5826 38.8991 26.4906 38.8767 29.3861 38.4131C29.6809 38.3643 29.9798 38.4517 30.2055 38.6429C30.4353 38.836 30.5654 39.1187 30.5654 39.4176V42.8336H36.6654V36.5506C36.6654 36.2049 36.8403 35.8836 37.1311 35.6966C42.2164 32.4168 42.7654 27.5083 42.7654 25.5502C42.7654 23.6633 41.5414 18.0533 35.9578 14.7878C35.4739 14.5031 35.3112 13.8809 35.5939 13.397C35.8785 12.911 36.4967 12.7484 36.9847 13.033C43.3958 16.7825 44.7988 23.34 44.7988 25.5502C44.7988 27.7808 44.1928 33.2769 38.6988 37.0935V43.8502C38.6988 44.4114 38.2433 44.8669 37.6821 44.8669Z" fill="#216079"/>
<path d="M33.8203 18.1078C33.6658 18.1078 33.5092 18.0733 33.3608 17.998C31.2665 16.9387 28.617 16.3998 25.4816 16.3998C22.1815 16.3998 19.2739 16.8207 16.84 17.6503C16.3073 17.8333 15.7298 17.5466 15.5488 17.0159C15.3679 16.4832 15.6505 15.9057 16.1832 15.7248C18.8286 14.824 21.9579 14.3665 25.4816 14.3665C28.9383 14.3665 31.8988 14.9785 34.2819 16.1843C34.7821 16.4385 34.9834 17.0505 34.7292 17.5507C34.5483 17.9045 34.1924 18.1078 33.8203 18.1078Z" fill="#F37800"/>
<path d="M30.2604 16.8678C29.9452 16.8678 29.6321 16.7214 29.4348 16.4448C29.1075 15.9894 29.2112 15.355 29.6666 15.0256C31.5027 13.7039 32.5987 11.5567 32.5987 9.28342C32.5987 5.35909 29.4064 2.16676 25.482 2.16676C21.5577 2.16676 18.3654 5.35909 18.3654 9.28342C18.3654 11.5364 19.382 13.59 21.151 14.9158C21.6004 15.2533 21.6919 15.8897 21.3564 16.3391C21.0189 16.7885 20.3824 16.88 19.9331 16.5445C17.6456 14.8304 16.332 12.183 16.332 9.28342C16.332 4.23872 20.4373 0.133423 25.482 0.133423C30.5267 0.133423 34.632 4.23872 34.632 9.28342C34.632 12.2074 33.2189 14.9727 30.8541 16.6766C30.6731 16.8047 30.4657 16.8678 30.2604 16.8678Z" fill="#F37800"/>
<path d="M10.2326 24.5338C11.3555 24.5338 12.2659 23.6235 12.2659 22.5005C12.2659 21.3775 11.3555 20.4672 10.2326 20.4672C9.10957 20.4672 8.19922 21.3775 8.19922 22.5005C8.19922 23.6235 9.10957 24.5338 10.2326 24.5338Z" fill="#F37800"/>
<path d="M43.7813 26.567C43.2201 26.567 42.7646 26.1116 42.7646 25.5504C42.7646 24.9892 43.2201 24.5337 43.7813 24.5337C44.3588 24.5337 45.1071 24.2694 45.8533 23.8566C45.103 22.6793 44.798 21.3109 44.798 20.467C44.798 17.7688 45.8248 16.4004 47.848 16.4004C50.898 16.4004 50.898 19.2491 50.898 20.467C50.898 21.6952 50.1436 22.9335 49.0782 23.9684C49.7553 24.1474 50.5625 24.0254 51.4958 23.6065C52.0082 23.3686 52.6101 23.6045 52.8398 24.1148C53.0716 24.6252 52.8439 25.2291 52.3315 25.4589C49.9484 26.5325 48.3075 26.0201 47.3478 25.3999C47.3254 25.3857 47.3051 25.3714 47.2827 25.3572C46.0688 26.1014 44.7736 26.567 43.7813 26.567ZM47.848 18.4337C47.3722 18.4337 46.8313 18.4337 46.8313 20.467C46.8313 20.9693 47.0387 21.8904 47.5084 22.6712C48.2974 21.9514 48.8647 21.1421 48.8647 20.467C48.8647 18.513 48.5698 18.4337 47.848 18.4337Z" fill="#216079"/>
</svg>
