<svg width="180" height="52" viewBox="0 0 180 52" fill="none" xmlns="http://www.w3.org/2000/svg">
<path d="M14.9062 6.25114C16.3714 6.92168 17.4968 7.89506 18.2824 9.12801C19.0681 10.361 19.4715 11.8318 19.4715 13.5407C19.4715 15.2278 19.0681 16.6771 18.2824 17.9317C17.4968 19.1862 16.3714 20.138 14.9062 20.8085C13.4411 21.4791 11.7211 21.8035 9.72514 21.8035H5.37218C5.26601 21.8035 5.18108 21.8901 5.18108 21.9982V27.925C5.18108 28.0332 5.09614 28.1197 4.98997 28.1197H0.191105C0.0849357 28.1197 0 28.0332 0 27.925V5.42917C0 5.32102 0.0849357 5.2345 0.191105 5.2345H9.72514C11.6999 5.2345 13.4411 5.55896 14.9062 6.25114ZM12.9952 16.4608C13.8021 15.7686 14.2055 14.7952 14.2055 13.5407C14.2055 12.2644 13.8021 11.2694 12.9952 10.5773C12.1883 9.88508 10.9992 9.53899 9.42786 9.53899H5.37218C5.26601 9.53899 5.18108 9.62551 5.18108 9.73366V17.3044C5.18108 17.4125 5.26601 17.4991 5.37218 17.4991H9.42786C10.9992 17.4774 12.1883 17.1313 12.9952 16.4608Z" fill="#246079"/>
<path d="M23.3571 5.2345H28.1772C28.2834 5.2345 28.3683 5.32102 28.3683 5.42917V27.925C28.3683 28.0332 28.2834 28.1197 28.1772 28.1197H23.3571C23.251 28.1197 23.166 28.0332 23.166 27.925V5.42917C23.166 5.32102 23.251 5.2345 23.3571 5.2345Z" fill="#246079"/>
<path d="M47.946 28.0332L43.7204 21.8252C43.6779 21.7819 43.6355 21.7387 43.5718 21.7387H43.4019H39.0702C38.964 21.7387 38.8791 21.8252 38.8791 21.9333V27.925C38.8791 28.0332 38.7941 28.1197 38.688 28.1197H33.8679C33.7617 28.1197 33.6768 28.0332 33.6768 27.925V5.42917C33.6768 5.32102 33.7617 5.2345 33.8679 5.2345H43.4019C45.3979 5.2345 47.1178 5.58059 48.583 6.25114C50.0481 6.92168 51.1735 7.89506 51.9592 9.12801C52.7448 10.361 53.1483 11.8318 53.1483 13.5407C53.1483 15.2495 52.7448 16.6987 51.9379 17.9317C51.1735 19.0997 50.1118 20.0082 48.7316 20.6571C48.6254 20.7004 48.583 20.8302 48.6467 20.9383L53.3606 27.8169C53.4455 27.9466 53.3606 28.1197 53.212 28.1197H48.0734C48.0309 28.0981 47.9672 28.0764 47.946 28.0332ZM46.6719 10.5773C45.865 9.88508 44.6759 9.53899 43.1046 9.53899H39.0702C38.964 9.53899 38.8791 9.62551 38.8791 9.73366V17.326C38.8791 17.4342 38.964 17.5207 39.0702 17.5207H43.1046C44.6759 17.5207 45.8438 17.1746 46.6719 16.4824C47.4788 15.7902 47.8823 14.7952 47.8823 13.5407C47.9035 12.2428 47.4788 11.2694 46.6719 10.5773Z" fill="#246079"/>
<path d="M110.968 27.925L110.947 15.0764C110.947 14.8817 110.692 14.8168 110.607 14.9899L104.386 25.6105C104.343 25.6754 104.301 25.697 104.237 25.697H102.114C102.05 25.697 101.986 25.6538 101.965 25.6105L95.786 15.2711C95.6799 15.098 95.4463 15.1846 95.4463 15.3792V27.9466C95.4463 28.0548 95.3614 28.1413 95.2552 28.1413H90.7536C90.6474 28.1413 90.5625 28.0548 90.5625 27.9466V5.45078C90.5625 5.34263 90.6474 5.2561 90.7536 5.2561H94.7668C94.8305 5.2561 94.8942 5.29937 94.9155 5.34263L103.112 19.1862C103.175 19.316 103.367 19.316 103.43 19.1862L111.499 5.34263C111.542 5.27773 111.584 5.2561 111.669 5.2561H115.64C115.746 5.2561 115.831 5.34263 115.831 5.45078L115.895 27.9466C115.895 28.0548 115.81 28.1413 115.703 28.1413H111.202C111.053 28.098 110.968 28.0115 110.968 27.925Z" fill="#246079"/>
<path d="M121.352 5.2345H126.172C126.278 5.2345 126.363 5.32102 126.363 5.42917V27.925C126.363 28.0332 126.278 28.1197 126.172 28.1197H121.352C121.246 28.1197 121.161 28.0332 121.161 27.925V5.42917C121.161 5.32102 121.246 5.2345 121.352 5.2345Z" fill="#246079"/>
<path d="M131.693 5.42917C131.693 5.32102 131.778 5.2345 131.884 5.2345H141.907C144.349 5.2345 146.493 5.71037 148.362 6.66212C150.23 7.61386 151.695 8.95496 152.715 10.6638C153.755 12.3942 154.265 14.3842 154.265 16.6771C154.265 18.9699 153.755 20.96 152.715 22.6904C151.674 24.4209 150.23 25.7403 148.362 26.6921C146.493 27.6438 144.327 28.1197 141.907 28.1197H131.863C131.757 28.1197 131.672 28.0332 131.672 27.925V5.42917H131.693ZM141.631 23.7503C143.881 23.7503 145.665 23.123 147.003 21.8468C148.341 20.5706 148.999 18.8402 148.999 16.6771C148.999 14.4924 148.341 12.762 147.003 11.5074C145.665 10.2312 143.881 9.60388 141.631 9.60388H137.065C136.959 9.60388 136.874 9.6904 136.874 9.79856V23.5773C136.874 23.6854 136.959 23.7719 137.065 23.7719H141.631V23.7503Z" fill="#246079"/>
<path d="M172.526 23.2095H162.355C162.27 23.2095 162.206 23.2528 162.185 23.3177L160.295 27.9899C160.274 28.0548 160.189 28.0981 160.125 28.0981H155.199C155.071 28.0981 154.965 27.9466 155.029 27.8385L164.881 5.34265C164.903 5.27776 164.988 5.2345 165.051 5.2345H169.935C169.999 5.2345 170.084 5.27776 170.105 5.34265L179.979 27.8385C180.042 27.9683 179.936 28.0981 179.809 28.0981H174.755C174.67 28.0981 174.607 28.0548 174.585 27.9899L172.695 23.3177C172.674 23.2528 172.611 23.2095 172.526 23.2095ZM170.912 18.9267L167.621 10.8585C167.557 10.707 167.344 10.707 167.281 10.8585L163.99 18.9267C163.947 19.0565 164.032 19.1862 164.159 19.1862H170.721C170.869 19.1862 170.954 19.0565 170.912 18.9267Z" fill="#246079"/>
<path d="M77.5036 28.0981H66.4619C66.5681 28.0981 66.653 28.0548 66.6955 27.9467L70.3265 21.6089H73.6177L77.27 27.9467C77.3124 28.0548 77.3974 28.0981 77.5036 28.0981Z" fill="#246079"/>
<path d="M77.2489 9.53906L70.3267 21.6306L66.6957 27.9684C66.6532 28.0549 66.547 28.1198 66.4621 28.1198H56.3547C56.1424 28.1198 56.015 27.8818 56.1212 27.6872L71.6219 0.151378C71.7281 -0.0432978 72.0041 -0.0432978 72.1103 0.151378L77.2489 9.25787C77.3126 9.34439 77.3126 9.45254 77.2489 9.53906Z" fill="#EE7809"/>
<path d="M87.5903 28.0981H77.5042C77.398 28.0981 77.3131 28.0548 77.2706 27.9683L73.6184 21.6305L72.3868 19.5107C72.2806 19.3161 72.408 19.0781 72.6204 19.0781H82.8976C83.0038 19.0781 83.0887 19.143 83.1524 19.2295L87.8239 27.6871C87.93 27.8602 87.8026 28.0981 87.5903 28.0981Z" fill="#EE7809"/>
<path d="M110.629 39.8218C111.584 40.7952 112.073 42.2661 112.073 44.2128L112.094 51.8052H108.314L108.293 44.7969C108.293 43.737 108.081 42.9583 107.656 42.4391C107.231 41.92 106.615 41.6604 105.83 41.6604C104.938 41.6604 104.237 41.9633 103.728 42.5473C103.218 43.1313 102.963 43.9965 102.963 45.143L102.984 51.8052H99.2048L99.1836 44.7969C99.1836 42.6987 98.3554 41.6604 96.6992 41.6604C95.8286 41.6604 95.1279 41.9633 94.6183 42.5473C94.1087 43.1313 93.8539 43.9965 93.8539 45.143L93.8751 51.8052H90.0954L90.0742 38.5456H93.684V40.0814C94.1724 39.519 94.7669 39.0864 95.4676 38.8052C96.1684 38.5024 96.9328 38.351 97.7821 38.351C98.6952 38.351 99.5233 38.524 100.267 38.8917C101.01 39.2594 101.604 39.8002 102.071 40.514C102.602 39.8218 103.282 39.2811 104.089 38.9133C104.896 38.524 105.787 38.351 106.764 38.351C108.378 38.351 109.673 38.8485 110.629 39.8218Z" fill="#EE7809"/>
<path d="M125.365 39.7786C126.448 40.752 127 42.2229 127 44.1912L127.021 51.762H123.496V50.118C122.795 51.351 121.458 51.9783 119.525 51.9783C118.527 51.9783 117.657 51.8052 116.914 51.4591C116.17 51.113 115.618 50.6372 115.236 50.0315C114.854 49.4259 114.663 48.7337 114.642 47.955C114.642 46.722 115.088 45.7486 116.001 45.0348C116.914 44.321 118.315 43.9749 120.226 43.9749H123.22C123.22 43.1313 122.965 42.4824 122.456 42.0498C121.946 41.5956 121.203 41.3793 120.205 41.3793C119.504 41.3793 118.825 41.4874 118.166 41.7254C117.487 41.9417 116.935 42.2445 116.468 42.6338L115.109 39.9516C115.809 39.4325 116.659 39.0432 117.657 38.762C118.655 38.4808 119.674 38.3293 120.715 38.3293C122.732 38.3293 124.282 38.8052 125.365 39.7786ZM122.158 48.95C122.668 48.6472 123.008 48.1929 123.22 47.6089V46.2462H120.63C119.079 46.2462 118.315 46.7653 118.315 47.8036C118.315 48.3011 118.506 48.6904 118.888 48.9716C119.271 49.2528 119.78 49.4042 120.46 49.4042C121.097 49.4042 121.67 49.2528 122.158 48.95Z" fill="#EE7809"/>
<path d="M135.833 38.7835C136.598 38.4591 137.49 38.286 138.488 38.286V41.8334C138.063 41.8118 137.787 41.7902 137.638 41.7902C136.555 41.7902 135.706 42.093 135.09 42.7203C134.474 43.3476 134.177 44.2561 134.177 45.489L134.198 51.7619H130.419L130.397 38.5023H134.007V40.2544C134.453 39.6055 135.069 39.1296 135.833 38.7835Z" fill="#EE7809"/>
<path d="M146.344 46.5273L144.539 48.3659V51.7403H140.759L140.717 33.4408H144.496L144.518 43.8019L150.017 38.4591H154.519L149.104 44.0831L155.028 51.7187H150.463L146.344 46.5273Z" fill="#EE7809"/>
<path d="M168.852 46.138L159 46.1596C159.17 46.9816 159.594 47.6305 160.253 48.1064C160.911 48.5822 161.739 48.8202 162.716 48.8202C163.395 48.8202 163.99 48.712 164.521 48.5173C165.051 48.301 165.54 47.9766 165.986 47.544L168.003 49.7503C166.771 51.1779 164.988 51.8917 162.631 51.9133C161.166 51.9133 159.87 51.6321 158.724 51.0481C157.598 50.4641 156.728 49.6638 156.112 48.6255C155.496 47.5872 155.178 46.4192 155.178 45.0997C155.178 43.8019 155.475 42.6338 156.07 41.5739C156.664 40.5356 157.492 39.7137 158.554 39.1297C159.616 38.5456 160.783 38.2428 162.1 38.2428C163.374 38.2428 164.521 38.524 165.561 39.0648C166.602 39.6272 167.408 40.4275 168.003 41.4658C168.598 42.504 168.895 43.7153 168.895 45.0997C168.916 45.1646 168.895 45.5107 168.852 46.138ZM159.998 41.8984C159.425 42.3959 159.064 43.0664 158.936 43.9316L165.349 43.91C165.221 43.0664 164.86 42.3959 164.287 41.8984C163.714 41.4009 162.992 41.1413 162.164 41.1413C161.314 41.1629 160.592 41.4009 159.998 41.8984Z" fill="#EE7809"/>
<path d="M179.851 51.0264C179.49 51.3076 179.023 51.5239 178.492 51.6537C177.961 51.7835 177.388 51.87 176.794 51.87C175.244 51.87 174.054 51.4807 173.205 50.6587C172.356 49.8584 171.931 48.6687 171.931 47.1113L171.91 41.6604H169.893V38.697H171.91V35.474H175.689V38.697H178.938V41.6604H175.689V47.068C175.689 47.6304 175.838 48.063 176.114 48.3658C176.39 48.6687 176.794 48.8201 177.303 48.8201C177.898 48.8201 178.407 48.647 178.832 48.3226L179.851 51.0264Z" fill="#EE7809"/>
</svg>
