<svg width="861" height="260" viewBox="0 0 861 260" fill="none" fill-opacity="20%" xmlns="http://www.w3.org/2000/svg">
<path d="M74.5311 31.2558C81.8568 34.6085 87.4838 39.4754 91.4121 45.6402C95.3403 51.8049 97.3576 59.1593 97.3576 67.7034C97.3576 76.1393 95.3403 83.3856 91.4121 89.6584C87.4838 95.9313 81.8568 100.69 74.5311 104.043C67.2054 107.396 58.6056 109.018 48.6257 109.018H26.8609C26.3301 109.018 25.9054 109.45 25.9054 109.991V139.625C25.9054 140.166 25.4807 140.599 24.9499 140.599H0.955527C0.424679 140.599 0 140.166 0 139.625V27.146C0 26.6052 0.424679 26.1726 0.955527 26.1726H48.6257C58.4995 26.1726 67.2054 27.7949 74.5311 31.2558ZM64.9758 82.304C69.0103 78.8431 71.0275 73.9762 71.0275 67.7034C71.0275 61.3223 69.0103 56.3473 64.9758 52.8864C60.9414 49.4255 54.9959 47.6951 47.1393 47.6951H26.8609C26.3301 47.6951 25.9054 48.1277 25.9054 48.6684V86.522C25.9054 87.0628 26.3301 87.4954 26.8609 87.4954H47.1393C54.9959 87.3872 60.9414 85.6568 64.9758 82.304Z" fill="#E0E0E0"/>
<path d="M116.786 26.1726H140.886C141.417 26.1726 141.842 26.6052 141.842 27.146V139.625C141.842 140.166 141.417 140.599 140.886 140.599H116.786C116.255 140.599 115.83 140.166 115.83 139.625V27.146C115.83 26.6052 116.255 26.1726 116.786 26.1726Z" fill="#E0E0E0"/>
<path d="M239.73 140.166L218.602 109.126C218.39 108.91 218.177 108.693 217.859 108.693H217.009H195.351C194.82 108.693 194.395 109.126 194.395 109.667V139.625C194.395 140.166 193.971 140.599 193.44 140.599H169.339C168.808 140.599 168.384 140.166 168.384 139.625V27.146C168.384 26.6052 168.808 26.1726 169.339 26.1726H217.009C226.989 26.1726 235.589 27.9031 242.915 31.2558C250.241 34.6085 255.868 39.4754 259.796 45.6402C263.724 51.8049 265.741 59.1593 265.741 67.7034C265.741 76.2475 263.724 83.4937 259.69 89.6584C255.868 95.4987 250.559 100.041 243.658 103.286C243.127 103.502 242.915 104.151 243.233 104.692L266.803 139.084C267.228 139.733 266.803 140.599 266.06 140.599H240.367C240.154 140.49 239.836 140.382 239.73 140.166ZM233.36 52.8864C229.325 49.4255 223.38 47.6951 215.523 47.6951H195.351C194.82 47.6951 194.395 48.1277 194.395 48.6684V86.6302C194.395 87.1709 194.82 87.6035 195.351 87.6035H215.523C223.38 87.6035 229.219 85.8731 233.36 82.4122C237.394 78.9513 239.411 73.9762 239.411 67.7034C239.517 61.2142 237.394 56.3473 233.36 52.8864Z" fill="#E0E0E0"/>
<path d="M554.841 139.625L554.735 75.3821C554.735 74.4088 553.461 74.0843 553.037 74.9495L521.929 128.053C521.717 128.377 521.504 128.485 521.186 128.485H510.569C510.25 128.485 509.932 128.269 509.826 128.053L478.93 76.3555C478.399 75.4903 477.232 75.9229 477.232 76.8963V139.733C477.232 140.274 476.807 140.707 476.276 140.707H453.768C453.237 140.707 452.812 140.274 452.812 139.733V27.254C452.812 26.7133 453.237 26.2806 453.768 26.2806H473.834C474.153 26.2806 474.471 26.4969 474.577 26.7133L515.559 95.9312C515.877 96.5801 516.833 96.5801 517.151 95.9312L557.496 26.7133C557.708 26.3888 557.92 26.2806 558.345 26.2806H578.199C578.73 26.2806 579.154 26.7133 579.154 27.254L579.473 139.733C579.473 140.274 579.048 140.707 578.517 140.707H556.009C555.266 140.49 554.841 140.058 554.841 139.625Z" fill="#E0E0E0"/>
<path d="M606.761 26.1726H630.862C631.392 26.1726 631.817 26.6052 631.817 27.146V139.625C631.817 140.166 631.392 140.599 630.862 140.599H606.761C606.23 140.599 605.806 140.166 605.806 139.625V27.146C605.806 26.6052 606.23 26.1726 606.761 26.1726Z" fill="#E0E0E0"/>
<path d="M658.466 27.146C658.466 26.6052 658.89 26.1726 659.421 26.1726H709.533C721.743 26.1726 732.466 28.552 741.809 33.3107C751.152 38.0694 758.477 44.7749 763.574 53.319C768.776 61.9713 771.324 71.9213 771.324 83.3856C771.324 94.8498 768.776 104.8 763.574 113.452C758.371 122.104 751.152 128.702 741.809 133.46C732.466 138.219 721.637 140.599 709.533 140.599H659.315C658.784 140.599 658.359 140.166 658.359 139.625V27.146H658.466ZM708.153 118.752C719.407 118.752 728.325 115.615 735.014 109.234C741.703 102.853 744.994 94.2009 744.994 83.3856C744.994 72.4621 741.703 63.8099 735.014 57.537C728.325 51.156 719.407 48.0195 708.153 48.0195H685.326C684.796 48.0195 684.371 48.4521 684.371 48.9929V117.886C684.371 118.427 684.796 118.86 685.326 118.86H708.153V118.752Z" fill="#E0E0E0"/>
<path d="M862.628 116.048H811.773C811.348 116.048 811.029 116.264 810.923 116.589L801.474 139.95C801.368 140.274 800.943 140.49 800.625 140.49H775.993C775.356 140.49 774.826 139.733 775.144 139.193L824.407 26.7134C824.513 26.3889 824.938 26.1726 825.256 26.1726H849.675C849.994 26.1726 850.418 26.3889 850.525 26.7134L899.894 139.193C900.212 139.841 899.681 140.49 899.044 140.49H873.776C873.351 140.49 873.033 140.274 872.926 139.95L863.477 116.589C863.371 116.264 863.053 116.048 862.628 116.048ZM854.559 94.6335L838.103 54.2924C837.784 53.5353 836.723 53.5353 836.404 54.2924L819.948 94.6335C819.735 95.2824 820.16 95.9313 820.797 95.9313H853.604C854.347 95.9313 854.771 95.2824 854.559 94.6335Z" fill="#E0E0E0"/>
<path d="M387.518 140.491H332.31C332.84 140.491 333.265 140.274 333.477 139.733L351.632 108.045H368.089L386.35 139.733C386.562 140.274 386.987 140.491 387.518 140.491Z" fill="#E0E0E0"/>
<path d="M386.245 47.6953L351.633 108.153L333.478 139.842C333.266 140.274 332.735 140.599 332.31 140.599H281.774C280.712 140.599 280.075 139.409 280.606 138.436L358.11 0.756889C358.641 -0.216489 360.021 -0.216489 360.552 0.756889L386.245 46.2893C386.563 46.7219 386.563 47.2627 386.245 47.6953Z" fill="#E0E0E0"/>
<path d="M437.951 140.49H387.52C386.989 140.49 386.564 140.274 386.352 139.842L368.091 108.153L361.933 97.5537C361.402 96.5803 362.039 95.3906 363.101 95.3906H414.487C415.018 95.3906 415.443 95.7151 415.761 96.1477L439.118 138.436C439.649 139.301 439.012 140.49 437.951 140.49Z" fill="#E0E0E0"/>
<path d="M553.143 199.109C557.921 203.976 560.363 211.331 560.363 221.064L560.469 259.026H541.571L541.465 223.985C541.465 218.685 540.403 214.791 538.279 212.196C536.156 209.6 533.077 208.302 529.149 208.302C524.69 208.302 521.186 209.816 518.638 212.737C516.09 215.657 514.816 219.983 514.816 225.715L514.922 259.026H496.024L495.918 223.985C495.918 213.494 491.777 208.302 483.496 208.302C479.143 208.302 475.639 209.816 473.091 212.737C470.543 215.657 469.269 219.983 469.269 225.715L469.375 259.026H450.477L450.371 192.728H468.42V200.407C470.862 197.595 473.835 195.432 477.338 194.026C480.842 192.512 484.664 191.755 488.911 191.755C493.476 191.755 497.617 192.62 501.332 194.459C505.048 196.297 508.021 199.001 510.357 202.57C513.011 199.109 516.409 196.405 520.443 194.567C524.477 192.62 528.937 191.755 533.82 191.755C541.889 191.755 548.366 194.242 553.143 199.109Z" fill="#E0E0E0"/>
<path d="M626.824 198.893C632.238 203.76 634.999 211.114 634.999 220.956L635.105 258.81H617.481V250.59C613.977 256.755 607.288 259.891 597.627 259.891C592.637 259.891 588.284 259.026 584.568 257.296C580.852 255.565 578.092 253.186 576.181 250.158C574.27 247.129 573.314 243.669 573.208 239.775C573.208 233.61 575.438 228.743 580.003 225.174C584.568 221.605 591.575 219.875 601.131 219.875H616.1C616.1 215.657 614.826 212.412 612.278 210.249C609.73 207.978 606.014 206.896 601.024 206.896C597.521 206.896 594.123 207.437 590.832 208.627C587.435 209.708 584.674 211.223 582.339 213.169L575.544 199.758C579.047 197.163 583.294 195.216 588.284 193.81C593.274 192.404 598.37 191.647 603.572 191.647C613.659 191.647 621.409 194.026 626.824 198.893ZM610.792 244.75C613.34 243.236 615.039 240.965 616.1 238.045V231.231H603.148C595.397 231.231 591.575 233.827 591.575 239.018C591.575 241.505 592.531 243.452 594.442 244.858C596.353 246.264 598.901 247.021 602.298 247.021C605.483 247.021 608.35 246.264 610.792 244.75Z" fill="#E0E0E0"/>
<path d="M679.167 193.918C682.989 192.295 687.448 191.43 692.438 191.43V209.167C690.315 209.059 688.934 208.951 688.191 208.951C682.777 208.951 678.53 210.465 675.451 213.602C672.372 216.738 670.886 221.28 670.886 227.445L670.992 258.81H652.094L651.987 192.512H670.036V201.272C672.266 198.028 675.345 195.648 679.167 193.918Z" fill="#E0E0E0"/>
<path d="M731.719 232.637L722.695 241.83V258.702H703.796L703.584 167.204H722.482L722.588 219.009L750.086 192.296H772.594L745.521 220.415L775.142 258.593H752.316L731.719 232.637Z" fill="#E0E0E0"/>
<path d="M844.262 230.69L794.999 230.798C795.849 234.908 797.972 238.153 801.263 240.532C804.554 242.911 808.695 244.101 813.579 244.101C816.976 244.101 819.949 243.56 822.603 242.587C825.257 241.505 827.699 239.883 829.929 237.72L840.015 248.752C833.857 255.89 824.939 259.459 813.154 259.567C805.828 259.567 799.352 258.161 793.619 255.241C787.992 252.321 783.639 248.319 780.56 243.128C777.481 237.936 775.889 232.096 775.889 225.499C775.889 219.01 777.375 213.169 780.348 207.87C783.321 202.678 787.461 198.569 792.77 195.648C798.078 192.728 803.917 191.214 810.5 191.214C816.87 191.214 822.603 192.62 827.806 195.324C833.008 198.136 837.042 202.138 840.015 207.329C842.988 212.52 844.474 218.577 844.474 225.499C844.58 225.823 844.474 227.554 844.262 230.69ZM799.989 209.492C797.123 211.98 795.318 215.332 794.681 219.658L826.744 219.55C826.107 215.332 824.302 211.98 821.435 209.492C818.569 207.005 814.959 205.707 810.818 205.707C806.572 205.815 802.962 207.005 799.989 209.492Z" fill="#E0E0E0"/>
<path d="M899.256 255.132C897.452 256.538 895.116 257.62 892.462 258.269C889.807 258.918 886.941 259.35 883.968 259.35C876.218 259.35 870.272 257.404 866.025 253.294C861.779 249.292 859.655 243.344 859.655 235.557L859.549 208.302H849.463V193.485H859.549V177.37H878.447V193.485H894.691V208.302H878.447V235.34C878.447 238.152 879.19 240.315 880.571 241.829C881.951 243.344 883.968 244.101 886.516 244.101C889.489 244.101 892.037 243.235 894.16 241.613L899.256 255.132Z" fill="#E0E0E0"/>
</svg>
