<svg width="292" height="386" viewBox="0 0 292 386" fill="none" xmlns="http://www.w3.org/2000/svg">
<path d="M291.342 130.894L196.06 296.906L146.08 383.921C145.495 385.109 144.034 386 142.865 386H3.74036C0.817574 386 -0.936115 382.733 0.525278 380.06L213.889 2.00462C215.35 -0.668205 219.15 -0.668205 220.611 2.00462L291.342 127.033C292.219 128.221 292.219 129.706 291.342 130.894Z" fill="#F9F9F9"/>
<path d="M289.758 325H206.538C205.662 325 204.961 324.645 204.611 323.935L174.476 271.94L164.315 254.549C163.439 252.952 164.49 251 166.242 251H251.039C251.915 251 252.616 251.532 253.141 252.242L291.685 321.628C292.561 323.048 291.51 325 289.758 325Z" fill="#EE7809"/>
</svg>
